HIERARCHY
ROOT Hips
{
    OFFSET 0.000000 0.000000 0.000000
    CHANNELS 6 Xposition Yposition Zposition Zrotation Xrotation Yrotation
    JOINT Chest
    {
        OFFSET -0.000000 0.071105 0.000000
        CHANNELS 3 Zrotation Xrotation Yrotation
        JOINT Chest2
        {
            OFFSET -0.000000 0.200212 0.000000
            CHANNELS 3 Zrotation Xrotation Yrotation
            JOINT Neck
            {
                OFFSET -0.000000 0.217555 0.000000
                CHANNELS 3 Zrotation Xrotation Yrotation
                JOINT Head
                {
                    OFFSET -0.000000 0.094084 0.017343
                    CHANNELS 3 Zrotation Xrotation Yrotation
                    End Site
                    {
                        OFFSET -0.000000 0.173426 0.000000
                    }
                }
            }
            JOINT LeftCollar
            {
                OFFSET 0.034271 0.185201 -0.001051
                CHANNELS 3 Zrotation Xrotation Yrotation
                JOINT LeftShoulder
                {
                    OFFSET 0.097644 0.000000 0.000000
                    CHANNELS 3 Zrotation Xrotation Yrotation
                    JOINT LeftElbow
                    {
                        OFFSET 0.258441 0.000000 0.000000
                        CHANNELS 3 Zrotation Xrotation Yrotation
                        JOINT LeftWrist
                        {
                            OFFSET 0.227663 0.000000 0.000000
                            CHANNELS 3 Zrotation Xrotation Yrotation
                            End Site
                            {
                                OFFSET 0.000000 -0.130070 0.000000
                            }
                        }
                    }
                }
            }
            JOINT RightCollar
            {
                OFFSET -0.035061 0.185201 -0.001051
                CHANNELS 3 Zrotation Xrotation Yrotation
                JOINT RightShoulder
                {
                    OFFSET -0.097644 0.000000 0.000000
                    CHANNELS 3 Zrotation Xrotation Yrotation
                    JOINT RightElbow
                    {
                        OFFSET -0.258441 0.000000 0.000000
                        CHANNELS 3 Zrotation Xrotation Yrotation
                        JOINT RightWrist
                        {
                            OFFSET -0.227663 0.000000 0.000000
                            CHANNELS 3 Zrotation Xrotation Yrotation
                            End Site
                            {
                                OFFSET -0.000000 -0.130070 0.000000
                            }
                        }
                    }
                }
            }
        }
    }
    JOINT LeftHip
    {
        OFFSET 0.086713 0.000000 0.000000
        CHANNELS 3 Zrotation Xrotation Yrotation
        JOINT LeftKnee
        {
            OFFSET -0.000000 -0.399834 0.000000
            CHANNELS 3 Zrotation Xrotation Yrotation
            JOINT LeftAnkle
            {
                OFFSET -0.000000 -0.330972 0.000000
                CHANNELS 3 Zrotation Xrotation Yrotation
                JOINT LeftToe
                {
                    OFFSET -0.000000 -0.056364 0.130070
                    CHANNELS 3 Zrotation Xrotation Yrotation
                    End Site
                    {
                        OFFSET -0.000000 0.000000 0.034685
                    }
                }
            }
        }
    }
    JOINT RightHip
    {
        OFFSET -0.086713 0.000000 0.000000
        CHANNELS 3 Zrotation Xrotation Yrotation
        JOINT RightKnee
        {
            OFFSET -0.000000 -0.399834 0.000000
            CHANNELS 3 Zrotation Xrotation Yrotation
            JOINT RightAnkle
            {
                OFFSET -0.000000 -0.330972 0.000000
                CHANNELS 3 Zrotation Xrotation Yrotation
                JOINT RightToe
                {
                    OFFSET -0.000000 -0.056364 0.130070
                    CHANNELS 3 Zrotation Xrotation Yrotation
                    End Site
                    {
                        OFFSET -0.000000 0.000000 0.034685
                    }
                }
            }
        }
    }
}
MOTION
Frames:    4
Frame Time:    0.016667
0.151211    0.792493    0.570275    -1.502446    5.713731    -167.255585    -1.891762    3.337886    -3.395151    1.670527    10.750118    -1.303627    -1.773549    22.564962    -10.326948    3.366050    12.964601    -12.047921    -1.483144    6.061698    -1.230192    -48.494408    22.005907    -0.879452    1.477971    -33.966434    -7.453720    81.154617    -16.081478    32.634621    -0.989803    5.729872    5.286795    49.995098    25.841633    6.357246    0.843621    -29.013865    18.497408    -69.722801    -17.565977    -25.968590    22.473915    -14.793060    6.682236    -5.495341    14.178544    16.035833    -13.807939    23.678932    12.216433    0.000000    0.000000    0.000000    4.234855    -0.227864    -9.194722    -2.594596    29.403158    -2.423447    -1.205459    -20.678261    -0.988011    0.000000    0.000000    0.000000    
0.154751    0.793055    0.572625    -1.822878    5.505230    -167.331726    -1.780110    3.398864    -3.390584    1.146291    10.665682    -1.251343    -1.779183    22.622282    -10.234241    3.441894    12.831766    -11.969271    -1.345747    6.044654    -1.224589    -48.195278    21.709208    -0.451895    1.523573    -33.206306    -7.018721    80.551338    -16.542551    31.751534    -0.930611    5.694794    5.132494    49.673729    25.091869    5.996713    0.857639    -28.475903    17.811211    -69.493195    -17.716125    -25.364275    22.321543    -14.781560    6.524925    -5.368673    13.934612    15.513510    -15.213153    23.411886    12.946953    0.000000    0.000000    0.000000    4.047296    -0.607971    -9.228167    -2.564461    29.456579    -2.595163    -1.425442    -20.536728    -0.677487    0.000000    0.000000    0.000000    
0.158854    0.794026    0.575766    -2.230972    5.149949    -167.437424    -1.834601    3.379340    -3.371586    0.834771    10.629272    -1.215952    -1.794954    22.657446    -10.203860    3.326008    12.618210    -11.910450    -1.215232    5.850330    -1.219910    -47.954288    20.968718    0.111121    1.467424    -32.454441    -6.464347    80.061722    -16.398760    30.948986    -1.177373    5.337621    5.049361    49.714336    24.636452    5.050876    0.574955    -28.242861    17.273445    -69.716789    -17.328899    -25.196854    22.073271    -14.820428    6.585514    -5.376470    13.802972    14.897338    -15.672854    22.991220    13.178282    0.000000    0.000000    0.000000    3.778925    -1.225987    -9.483650    -2.709026    29.576752    -2.479295    -1.666527    -20.277479    -0.422539    0.000000    0.000000    0.000000    
0.161890    0.794987    0.578096    -2.600236    4.873562    -167.555466    -1.955545    3.465178    -3.337252    0.637778    10.478838    -1.186862    -1.983453    22.539516    -10.069604    3.470963    12.740458    -11.869905    -1.107226    5.810500    -1.067364    -47.664436    20.020287    0.408612    1.289989    -31.706581    -6.094522    79.784737    -16.013266    30.207577    -1.379764    5.282690    4.857646    49.478054    23.435926    4.615058    0.627374    -27.479284    16.855015    -69.675728    -16.455412    -24.592308    21.758850    -14.724003    6.782321    -5.348729    13.758658    14.519598    -15.142785    22.281401    12.894819    0.000000    0.000000    0.000000    3.526968    -1.643124    -9.505528    -2.726013    29.523085    -2.743196    -1.844299    -19.978703    -0.039931    0.000000    0.000000    0.000000    
